M48
; DRILL file {KiCad 9.0.7} date 2026-01-08T20:23:28+0100
; FORMAT={-:-/ absolute / metric / decimal}
; #@! TF.CreationDate,2026-01-08T20:23:28+01:00
; #@! TF.GenerationSoftware,Kicad,Pcbnew,9.0.7
; #@! TF.FileFunction,Plated,1,2,PTH
FMAT,2
METRIC
; #@! TA.AperFunction,Plated,PTH,ViaDrill
T1C0.300
; #@! TA.AperFunction,Plated,PTH,ComponentDrill
T2C0.787
; #@! TA.AperFunction,Plated,PTH,ComponentDrill
T3C0.800
; #@! TA.AperFunction,Plated,PTH,ComponentDrill
T4C0.900
; #@! TA.AperFunction,Plated,PTH,ComponentDrill
T5C1.000
%
G90
G05
T1
X113.411Y-102.235
X114.808Y-97.282
X115.062Y-116.967
X117.602Y-118.872
X118.237Y-105.156
X122.174Y-92.202
X123.825Y-95.377
X124.714Y-98.298
X124.968Y-117.602
X125.222Y-95.123
X125.349Y-92.837
X125.35Y-106.807
X125.476Y-120.015
X125.857Y-118.11
X126.594Y-86.36
X130.048Y-106.045
X130.175Y-105.029
X130.302Y-99.314
X132.588Y-104.14
X132.842Y-110.49
X133.604Y-91.948
X133.731Y-93.853
X133.858Y-97.536
X145.161Y-74.041
X146.812Y-74.041
X148.844Y-120.142
X151.384Y-120.777
T2
X120.523Y-89.789
X120.523Y-92.329
X120.523Y-94.869
X120.523Y-97.409
X120.523Y-99.949
X120.523Y-102.489
X120.523Y-105.029
X120.523Y-107.569
X128.143Y-89.789
X128.143Y-92.329
X128.143Y-94.869
X128.143Y-97.409
X128.143Y-99.949
X128.143Y-102.489
X128.143Y-105.029
X128.143Y-107.569
T3
X104.14Y-71.501
X111.694Y-85.852
X111.76Y-71.501
X113.694Y-85.852
X120.65Y-71.882
X120.909Y-114.427
X120.909Y-116.967
X120.909Y-119.507
X120.909Y-122.047
X128.27Y-71.882
X128.529Y-114.427
X128.529Y-116.967
X128.529Y-119.507
X128.529Y-122.047
X136.303Y-85.217
X136.398Y-72.009
X138.303Y-85.217
X144.018Y-72.009
T4
X78.994Y-97.79
X81.534Y-97.79
X91.567Y-72.898
X92.583Y-125.73
X94.107Y-72.898
X95.123Y-125.73
X110.109Y-97.79
X112.649Y-97.79
X121.412Y-59.944
X122.682Y-140.716
X123.952Y-59.944
X125.222Y-140.716
X137.16Y-97.663
X139.7Y-97.663
X150.368Y-125.222
X152.146Y-73.533
X152.908Y-125.222
X154.686Y-73.533
X163.957Y-97.536
X166.497Y-97.536
T5
X112.649Y-112.268
X138.303Y-112.268
M30
